<svg xmlns="http://www.w3.org/2000/svg" width="782.32" height="746.76" viewBox="0 0 55.88 53.34"><rect width="55.88" height="53.34" fill="#dcefdc" stroke="#111827" stroke-width=".25"/><line x1="34.43" y1="2.82" x2="33.02" y2="2.82" stroke="#f59e0b" stroke-width="0.3" stroke-linecap="round"/><line x1="34.43" y1="4.09" x2="33.02" y2="4.09" stroke="#64748b" stroke-width="0.3" stroke-linecap="round"/><line x1="34.43" y1="12.98" x2="33.02" y2="12.98" stroke="#f97316" stroke-width="0.3" stroke-linecap="round"/><line x1="34.43" y1="14.25" x2="33.02" y2="14.25" stroke="#3b82f6" stroke-width="0.3" stroke-linecap="round"/><line x1="34.43" y1="15.52" x2="33.02" y2="15.52" stroke="#6366f1" stroke-width="0.3" stroke-linecap="round"/><line x1="34.43" y1="16.79" x2="33.02" y2="16.79" stroke="#14b8a6" stroke-width="0.3" stroke-linecap="round"/><line x1="38.74" y1="19.31" x2="38.74" y2="21.082" stroke="#fb7185" stroke-width="0.3" stroke-linecap="round"/><line x1="7.355" y1="5.6" x2="5.5" y2="5.6" stroke="#dc2626" stroke-width="0.3" stroke-linecap="round"/><line x1="7.355" y1="10.4" x2="5.5" y2="10.4" stroke="#dc2626" stroke-width="0.3" stroke-linecap="round"/><line x1="5.5" y1="5.6" x2="5.5" y2="10.4" stroke="#dc2626" stroke-width="0.8" stroke-linecap="round"/><line x1="7.355" y1="10.4" x2="8.89" y2="10.4" stroke="#dc2626" stroke-width="0.3" stroke-linecap="round"/><line x1="7.355" y1="6.75" x2="9.8" y2="6.75" stroke="#ec4899" stroke-width="0.3" stroke-linecap="round"/><line x1="7.355" y1="9.75" x2="9.8" y2="9.75" stroke="#d946ef" stroke-width="0.3" stroke-linecap="round"/><line x1="32" y1="4.09" x2="33.02" y2="4.09" stroke="#64748b" stroke-width="0.3" stroke-linecap="round"/><line x1="3.81" y1="50.8" x2="7.62" y2="46.99" stroke="#06b6d4" stroke-width="0.8" stroke-linecap="round"/><line x1="7.62" y1="46.99" x2="7.62" y2="34.29" stroke="#06b6d4" stroke-width="0.8" stroke-linecap="round"/><line x1="7.62" y1="34.29" x2="12.31" y2="29.6" stroke="#06b6d4" stroke-width="0.8" stroke-linecap="round"/><line x1="12.31" y1="29.6" x2="20.32" y2="29.6" stroke="#06b6d4" stroke-width="0.8" stroke-linecap="round"/><line x1="20.32" y1="29.6" x2="20.32" y2="26.67" stroke="#06b6d4" stroke-width="0.8" stroke-linecap="round"/><line x1="12.7" y1="50.8" x2="12.7" y2="34.81" stroke="#0ea5e9" stroke-width="0.8" stroke-linecap="round"/><line x1="12.7" y1="34.81" x2="16.51" y2="31" stroke="#0ea5e9" stroke-width="0.8" stroke-linecap="round"/><line x1="16.51" y1="31" x2="22.86" y2="31" stroke="#0ea5e9" stroke-width="0.8" stroke-linecap="round"/><line x1="22.86" y1="31" x2="22.86" y2="26.67" stroke="#0ea5e9" stroke-width="0.8" stroke-linecap="round"/><line x1="21.59" y1="50.8" x2="21.59" y2="38.1" stroke="#8b5cf6" stroke-width="0.8" stroke-linecap="round"/><line x1="21.59" y1="38.1" x2="17.78" y2="34.29" stroke="#8b5cf6" stroke-width="0.8" stroke-linecap="round"/><line x1="30.48" y1="50.8" x2="30.48" y2="36.83" stroke="#a855f7" stroke-width="0.8" stroke-linecap="round"/><line x1="30.48" y1="36.83" x2="27.94" y2="34.29" stroke="#a855f7" stroke-width="0.8" stroke-linecap="round"/><line x1="39.37" y1="50.8" x2="39.37" y2="35.63" stroke="#84cc16" stroke-width="0.8" stroke-linecap="round"/><line x1="39.37" y1="35.63" x2="42" y2="33" stroke="#84cc16" stroke-width="0.8" stroke-linecap="round"/><line x1="42" y1="33" x2="42" y2="28" stroke="#84cc16" stroke-width="0.8" stroke-linecap="round"/><line x1="42" y1="28" x2="40.52" y2="29.48" stroke="#84cc16" stroke-width="0.8" stroke-linecap="round"/><line x1="40.52" y1="29.48" x2="27.94" y2="29.48" stroke="#84cc16" stroke-width="0.8" stroke-linecap="round"/><line x1="27.94" y1="29.48" x2="27.94" y2="26.67" stroke="#84cc16" stroke-width="0.8" stroke-linecap="round"/><line x1="48.26" y1="50.8" x2="48.26" y2="34.72" stroke="#16a34a" stroke-width="0.8" stroke-linecap="round"/><line x1="48.26" y1="34.72" x2="44.54" y2="31" stroke="#16a34a" stroke-width="0.8" stroke-linecap="round"/><line x1="39.46" y1="31" x2="25.4" y2="31" stroke="#22c55e" stroke-width="0.8" stroke-linecap="round"/><line x1="25.4" y1="31" x2="25.4" y2="26.67" stroke="#22c55e" stroke-width="0.8" stroke-linecap="round"/><line x1="22.86" y1="34.29" x2="22.86" y2="32.5" stroke="#eab308" stroke-width="0.8" stroke-linecap="round"/><line x1="22.86" y1="32.5" x2="36.98" y2="32.5" stroke="#eab308" stroke-width="0.8" stroke-linecap="round"/><line x1="36.98" y1="32.5" x2="37.5" y2="33.02" stroke="#eab308" stroke-width="0.8" stroke-linecap="round"/><line x1="37.5" y1="27.94" x2="37.5" y2="21.59" stroke="#fb7185" stroke-width="0.8" stroke-linecap="round"/><line x1="37.5" y1="21.59" x2="38.008" y2="21.082" stroke="#fb7185" stroke-width="0.8" stroke-linecap="round"/><line x1="38.008" y1="21.082" x2="38.74" y2="21.082" stroke="#fb7185" stroke-width="0.8" stroke-linecap="round"/><line x1="30.48" y1="26.67" x2="30.48" y2="16.79" stroke="#3b82f6" stroke-width="0.8" stroke-linecap="round"/><line x1="30.48" y1="16.79" x2="33.02" y2="14.25" stroke="#3b82f6" stroke-width="0.3" stroke-linecap="round"/><line x1="33.02" y1="26.67" x2="31.75" y2="25.4" stroke="#6366f1" stroke-width="0.8" stroke-linecap="round"/><line x1="31.75" y1="25.4" x2="31.75" y2="16.79" stroke="#6366f1" stroke-width="0.8" stroke-linecap="round"/><line x1="31.75" y1="16.79" x2="33.02" y2="15.52" stroke="#6366f1" stroke-width="0.3" stroke-linecap="round"/><line x1="35.56" y1="26.67" x2="33.02" y2="24.13" stroke="#14b8a6" stroke-width="0.8" stroke-linecap="round"/><line x1="33.02" y1="24.13" x2="33.02" y2="16.79" stroke="#14b8a6" stroke-width="0.8" stroke-linecap="round"/><line x1="33.02" y1="12.98" x2="31.5" y2="12.98" stroke="#f97316" stroke-width="0.3" stroke-linecap="round"/><line x1="31.5" y1="12.98" x2="28" y2="12.98" stroke="#f97316" stroke-width="0.8" stroke-linecap="round"/><line x1="28" y1="12.98" x2="23.2" y2="17.78" stroke="#f97316" stroke-width="0.8" stroke-linecap="round"/><line x1="23.2" y1="17.78" x2="12.7" y2="17.78" stroke="#f97316" stroke-width="0.8" stroke-linecap="round"/><line x1="7.62" y1="17.78" x2="3.81" y2="17.78" stroke="#0284c7" stroke-width="0.8" stroke-linecap="round"/><line x1="8.89" y1="10.4" x2="8.89" y2="11.43" stroke="#dc2626" stroke-width="0.3" stroke-linecap="round"/><line x1="5.5" y1="5.6" x2="10.5" y2="5.6" stroke="#dc2626" stroke-width="0.3" stroke-linecap="round"/><line x1="10.5" y1="5.6" x2="13.7" y2="5.6" stroke="#dc2626" stroke-width="0.8" stroke-linecap="round"/><line x1="13.7" y1="5.6" x2="13.7" y2="4.5" stroke="#dc2626" stroke-width="0.8" stroke-linecap="round"/><line x1="13.7" y1="5.6" x2="13.7" y2="10" stroke="#dc2626" stroke-width="0.8" stroke-linecap="round"/><line x1="13.7" y1="10" x2="13.7" y2="12.45" stroke="#dc2626" stroke-width="0.8" stroke-linecap="round"/><line x1="13.7" y1="12.45" x2="11.65" y2="14.5" stroke="#dc2626" stroke-width="0.8" stroke-linecap="round"/><line x1="8.89" y1="11.43" x2="5.82" y2="14.5" stroke="#dc2626" stroke-width="0.8" stroke-linecap="round"/><line x1="5.82" y1="14.5" x2="0.9" y2="14.5" stroke="#dc2626" stroke-width="0.8" stroke-linecap="round"/><line x1="0.9" y1="14.5" x2="0.9" y2="52.45" stroke="#dc2626" stroke-width="0.8" stroke-linecap="round"/><line x1="0.9" y1="52.45" x2="50.8" y2="52.45" stroke="#dc2626" stroke-width="0.8" stroke-linecap="round"/><line x1="6.35" y1="50.8" x2="6.35" y2="52.45" stroke="#dc2626" stroke-width="0.8" stroke-linecap="round"/><line x1="15.24" y1="50.8" x2="15.24" y2="52.45" stroke="#dc2626" stroke-width="0.8" stroke-linecap="round"/><line x1="24.13" y1="50.8" x2="24.13" y2="52.45" stroke="#dc2626" stroke-width="0.8" stroke-linecap="round"/><line x1="33.02" y1="50.8" x2="33.02" y2="52.45" stroke="#dc2626" stroke-width="0.8" stroke-linecap="round"/><line x1="41.91" y1="50.8" x2="41.91" y2="52.45" stroke="#dc2626" stroke-width="0.8" stroke-linecap="round"/><line x1="50.8" y1="50.8" x2="50.8" y2="52.45" stroke="#dc2626" stroke-width="0.8" stroke-linecap="round"/><line x1="16" y1="10" x2="17.5" y2="8.5" stroke="#f59e0b" stroke-width="0.8" stroke-linecap="round"/><line x1="17.5" y1="8.5" x2="25.75" y2="8.5" stroke="#f59e0b" stroke-width="0.8" stroke-linecap="round"/><line x1="25.75" y1="8.5" x2="28.75" y2="11.5" stroke="#f59e0b" stroke-width="0.8" stroke-linecap="round"/><line x1="28.75" y1="11.5" x2="31" y2="11.5" stroke="#f59e0b" stroke-width="0.8" stroke-linecap="round"/><line x1="25.75" y1="8.5" x2="29.8" y2="4.45" stroke="#f59e0b" stroke-width="0.8" stroke-linecap="round"/><line x1="29.8" y1="4.45" x2="29.8" y2="4.09" stroke="#f59e0b" stroke-width="0.8" stroke-linecap="round"/><line x1="29.8" y1="4.45" x2="29.8" y2="2.54" stroke="#f59e0b" stroke-width="0.8" stroke-linecap="round"/><line x1="29.8" y1="2.54" x2="32.74" y2="2.54" stroke="#f59e0b" stroke-width="0.8" stroke-linecap="round"/><line x1="32.74" y1="2.54" x2="33.02" y2="2.82" stroke="#f59e0b" stroke-width="0.8" stroke-linecap="round"/><line x1="16" y1="14.65" x2="14.5" y2="16.15" stroke="#f59e0b" stroke-width="0.8" stroke-linecap="round"/><line x1="14.5" y1="16.15" x2="11" y2="16.15" stroke="#f59e0b" stroke-width="0.8" stroke-linecap="round"/><line x1="11" y1="16.15" x2="11" y2="20.32" stroke="#f59e0b" stroke-width="0.8" stroke-linecap="round"/><line x1="11" y1="20.32" x2="14.31" y2="23.63" stroke="#f59e0b" stroke-width="0.8" stroke-linecap="round"/><line x1="14.31" y1="23.63" x2="15.22" y2="23.63" stroke="#f59e0b" stroke-width="0.8" stroke-linecap="round"/><line x1="15.22" y1="23.63" x2="15.22" y2="24.13" stroke="#f59e0b" stroke-width="0.8" stroke-linecap="round"/><line x1="15.22" y1="24.13" x2="17.78" y2="26.67" stroke="#f59e0b" stroke-width="0.8" stroke-linecap="round"/><circle cx="17.78" cy="34.29" r="0.78" fill="#8b5cf6" stroke="#111827" stroke-width=".09"/><circle cx="22.86" cy="34.29" r="0.78" fill="#eab308" stroke="#111827" stroke-width=".09"/><circle cx="27.94" cy="34.29" r="0.78" fill="#a855f7" stroke="#111827" stroke-width=".09"/><circle cx="30.48" cy="34.29" r="0.78" fill="#374151" stroke="#111827" stroke-width=".09"/><circle cx="33.02" cy="34.29" r="0.78" fill="#374151" stroke="#111827" stroke-width=".09"/><circle cx="35.56" cy="34.29" r="0.78" fill="#374151" stroke="#111827" stroke-width=".09"/><circle cx="35.56" cy="26.67" r="0.78" fill="#14b8a6" stroke="#111827" stroke-width=".09"/><circle cx="33.02" cy="26.67" r="0.78" fill="#6366f1" stroke="#111827" stroke-width=".09"/><circle cx="30.48" cy="26.67" r="0.78" fill="#3b82f6" stroke="#111827" stroke-width=".09"/><circle cx="27.94" cy="26.67" r="0.78" fill="#84cc16" stroke="#111827" stroke-width=".09"/><circle cx="25.400000000000002" cy="26.67" r="0.78" fill="#22c55e" stroke="#111827" stroke-width=".09"/><circle cx="22.86" cy="26.67" r="0.78" fill="#0ea5e9" stroke="#111827" stroke-width=".09"/><circle cx="20.32" cy="26.67" r="0.78" fill="#06b6d4" stroke="#111827" stroke-width=".09"/><circle cx="17.78" cy="26.67" r="0.78" fill="#f59e0b" stroke="#111827" stroke-width=".09"/><circle cx="34.43" cy="1.5500000000000007" r="0.75" fill="#374151" stroke="#111827" stroke-width=".09"/><circle cx="34.43" cy="2.8200000000000003" r="0.75" fill="#f59e0b" stroke="#111827" stroke-width=".09"/><circle cx="34.43" cy="4.090000000000001" r="0.75" fill="#64748b" stroke="#111827" stroke-width=".09"/><circle cx="34.43" cy="12.98" r="0.75" fill="#f97316" stroke="#111827" stroke-width=".09"/><circle cx="34.43" cy="14.25" r="0.75" fill="#3b82f6" stroke="#111827" stroke-width=".09"/><circle cx="34.43" cy="15.520000000000001" r="0.75" fill="#6366f1" stroke="#111827" stroke-width=".09"/><circle cx="34.43" cy="16.79" r="0.75" fill="#14b8a6" stroke="#111827" stroke-width=".09"/><circle cx="37.47" cy="19.310000000000002" r="0.75" fill="#374151" stroke="#111827" stroke-width=".09"/><circle cx="38.74" cy="19.310000000000002" r="0.75" fill="#fb7185" stroke="#111827" stroke-width=".09"/><circle cx="51.93" cy="1.549999999999999" r="0.75" fill="#374151" stroke="#111827" stroke-width=".09"/><circle cx="42.5" cy="8.89" r="0.78" fill="#374151" stroke="#111827" stroke-width=".09"/><circle cx="18.3" cy="10" r="0.78" fill="#374151" stroke="#111827" stroke-width=".09"/><circle cx="16" cy="10" r="0.78" fill="#f59e0b" stroke="#111827" stroke-width=".09"/><circle cx="13.7" cy="10" r="0.78" fill="#dc2626" stroke="#111827" stroke-width=".09"/><circle cx="16" cy="14.65" r="0.78" fill="#f59e0b" stroke="#111827" stroke-width=".09"/><circle cx="3.8099999999999996" cy="50.8" r="0.78" fill="#06b6d4" stroke="#111827" stroke-width=".09"/><circle cx="6.35" cy="50.8" r="0.78" fill="#dc2626" stroke="#111827" stroke-width=".09"/><circle cx="8.89" cy="50.8" r="0.78" fill="#374151" stroke="#111827" stroke-width=".09"/><circle cx="12.7" cy="50.8" r="0.78" fill="#0ea5e9" stroke="#111827" stroke-width=".09"/><circle cx="15.239999999999998" cy="50.8" r="0.78" fill="#dc2626" stroke="#111827" stroke-width=".09"/><circle cx="17.779999999999998" cy="50.8" r="0.78" fill="#374151" stroke="#111827" stroke-width=".09"/><circle cx="21.59" cy="50.8" r="0.78" fill="#8b5cf6" stroke="#111827" stroke-width=".09"/><circle cx="24.13" cy="50.8" r="0.78" fill="#dc2626" stroke="#111827" stroke-width=".09"/><circle cx="26.669999999999998" cy="50.8" r="0.78" fill="#374151" stroke="#111827" stroke-width=".09"/><circle cx="30.480000000000004" cy="50.8" r="0.78" fill="#a855f7" stroke="#111827" stroke-width=".09"/><circle cx="33.02" cy="50.8" r="0.78" fill="#dc2626" stroke="#111827" stroke-width=".09"/><circle cx="35.56" cy="50.8" r="0.78" fill="#374151" stroke="#111827" stroke-width=".09"/><circle cx="39.37" cy="50.8" r="0.78" fill="#84cc16" stroke="#111827" stroke-width=".09"/><circle cx="41.91" cy="50.8" r="0.78" fill="#dc2626" stroke="#111827" stroke-width=".09"/><circle cx="44.449999999999996" cy="50.8" r="0.78" fill="#374151" stroke="#111827" stroke-width=".09"/><circle cx="48.26" cy="50.8" r="0.78" fill="#16a34a" stroke="#111827" stroke-width=".09"/><circle cx="50.8" cy="50.8" r="0.78" fill="#dc2626" stroke="#111827" stroke-width=".09"/><circle cx="53.339999999999996" cy="50.8" r="0.78" fill="#374151" stroke="#111827" stroke-width=".09"/><circle cx="3.81" cy="17.78" r="0.78" fill="#0284c7" stroke="#111827" stroke-width=".09"/><circle cx="3.81" cy="27.94" r="0.78" fill="#374151" stroke="#111827" stroke-width=".09"/><circle cx="7.355" cy="4.8" r="0.575" fill="#374151" stroke="#111827" stroke-width=".09"/><circle cx="7.355" cy="5.6" r="0.575" fill="#dc2626" stroke="#111827" stroke-width=".09"/><circle cx="7.355" cy="6.75" r="0.575" fill="#ec4899" stroke="#111827" stroke-width=".09"/><circle cx="7.355" cy="10.4" r="0.575" fill="#dc2626" stroke="#111827" stroke-width=".09"/><circle cx="7.355" cy="11.2" r="0.575" fill="#374151" stroke="#111827" stroke-width=".09"/><circle cx="7.355" cy="11.2" r="0.575" fill="#374151" stroke="#111827" stroke-width=".09"/><circle cx="7.355" cy="10.4" r="0.575" fill="#dc2626" stroke="#111827" stroke-width=".09"/><circle cx="7.355" cy="9.75" r="0.575" fill="#d946ef" stroke="#111827" stroke-width=".09"/><circle cx="7.355" cy="5.6" r="0.575" fill="#dc2626" stroke="#111827" stroke-width=".09"/><circle cx="7.355" cy="4.8" r="0.575" fill="#374151" stroke="#111827" stroke-width=".09"/><circle cx="6.779999999999999" cy="3.6799999999999997" r="0.78" fill="#374151" stroke="#111827" stroke-width=".09"/><circle cx="2.5999999999999996" cy="3.6799999999999997" r="0.78" fill="#374151" stroke="#111827" stroke-width=".09"/><circle cx="6.78" cy="12.32" r="0.78" fill="#374151" stroke="#111827" stroke-width=".09"/><circle cx="2.6000000000000005" cy="12.32" r="0.78" fill="#374151" stroke="#111827" stroke-width=".09"/><circle cx="13.7" cy="4.5" r="0.78" fill="#dc2626" stroke="#111827" stroke-width=".09"/><circle cx="17.2" cy="4.5" r="0.78" fill="#374151" stroke="#111827" stroke-width=".09"/><circle cx="25.75" cy="8.5" r="0.78" fill="#f59e0b" stroke="#111827" stroke-width=".09"/><circle cx="22.25" cy="8.5" r="0.78" fill="#374151" stroke="#111827" stroke-width=".09"/><circle cx="11.65" cy="14.5" r="0.78" fill="#dc2626" stroke="#111827" stroke-width=".09"/><circle cx="9.15" cy="14.5" r="0.78" fill="#374151" stroke="#111827" stroke-width=".09"/><circle cx="31" cy="11.5" r="0.78" fill="#f59e0b" stroke="#111827" stroke-width=".09"/><circle cx="28.5" cy="11.5" r="0.78" fill="#374151" stroke="#111827" stroke-width=".09"/><circle cx="15.22" cy="24.13" r="0.78" fill="#f59e0b" stroke="#111827" stroke-width=".09"/><circle cx="12.72" cy="24.13" r="0.78" fill="#374151" stroke="#111827" stroke-width=".09"/><circle cx="12.7" cy="17.78" r="0.78" fill="#f97316" stroke="#111827" stroke-width=".09"/><circle cx="7.62" cy="17.78" r="0.78" fill="#0284c7" stroke="#111827" stroke-width=".09"/><circle cx="9.8" cy="6.75" r="0.75" fill="#ec4899" stroke="#111827" stroke-width=".09"/><circle cx="12" cy="6.75" r="0.75" fill="#374151" stroke="#111827" stroke-width=".09"/><circle cx="9.8" cy="9.75" r="0.75" fill="#d946ef" stroke="#111827" stroke-width=".09"/><circle cx="12" cy="9.75" r="0.75" fill="#374151" stroke="#111827" stroke-width=".09"/><circle cx="29.799999999999997" cy="4.09" r="0.75" fill="#f59e0b" stroke="#111827" stroke-width=".09"/><circle cx="32" cy="4.09" r="0.75" fill="#64748b" stroke="#111827" stroke-width=".09"/><circle cx="37.5" cy="27.94" r="0.78" fill="#fb7185" stroke="#111827" stroke-width=".09"/><circle cx="37.5" cy="33.02" r="0.78" fill="#eab308" stroke="#111827" stroke-width=".09"/><circle cx="39.46" cy="31" r="0.78" fill="#22c55e" stroke="#111827" stroke-width=".09"/><circle cx="44.54" cy="31" r="0.78" fill="#16a34a" stroke="#111827" stroke-width=".09"/><g fill="#111827" font-family="Arial" font-size=".72" font-weight="700"><text x="26.67" y="29.580000000000002" text-anchor="middle">U1</text><text x="43.18" y="8.9" text-anchor="middle">U2</text><text x="16" y="10.6" text-anchor="middle">U3</text><text x="3.81" y="16.880000000000003" text-anchor="middle">J1</text><text x="3.675" y="7.1" text-anchor="middle">J8</text><text x="15.45" y="3.6" text-anchor="middle">C3</text><text x="24" y="7.6" text-anchor="middle">C4</text><text x="37.5" y="29.580000000000002" text-anchor="middle">JP1</text><text x="42" y="30.1" text-anchor="middle">JP2</text><text x="27.94" y="46.7" text-anchor="middle" font-size=".85">RSSI CHECKER · F.Cu · 55.88 × 53.34 mm</text></g></svg>
